<svg width="65" height="51" xmlns="http://www.w3.org/2000/svg"><g fill="none" fill-rule="evenodd"><path d="M65 49.047C65 50.121 64.15 51 63.11 51H1.89C.85 51 0 50.121 0 49.047V1.953C0 .879.85 0 1.89 0h61.22C64.15 0 65 .879 65 1.953v47.094z" fill="#004990"/><path d="M17.497 35.687h-6.845l-.988 2.98H6.479l5.277-15.527h4.521l5.358 15.528h-3.127l-1.011-2.981zm-.697-2.172l-2.743-8.088-2.696 8.088h5.44zM37.731 23.14v15.528H32.63l-4.532-8.52c-.226-.425-.577-1.168-1.057-2.23l-.512-1.115-.5-1.115h-.116l.046 1.024.035 1.013.023 2.036v8.908h-3.01V23.14h5.102l4.126 7.872c.435.84.857 1.685 1.267 2.537l.604 1.263.604 1.274h.105l-.035-1.002-.035-1-.022-2.003v-8.94h3.01zm2.79 15.528V23.14h7.797c1.828 0 3.074.286 3.737.859.662.572.994 1.651.994 3.236 0 1.92-.78 3.049-2.337 3.39v.057c1.814.273 2.72 1.506 2.72 3.697 0 1.585-.349 2.697-1.047 3.334-.697.637-1.913.955-3.648.955H40.52zm3.01-9.01h3.684c1.193 0 1.954-.129 2.283-.386.33-.258.494-.854.494-1.787 0-1.243-.72-1.865-2.161-1.865h-4.3v4.038zm0 6.53h3.3l1.057-.022c1.016 0 1.684-.14 2.006-.421.32-.28.482-.872.482-1.775 0-.94-.169-1.532-.506-1.774-.337-.243-1.167-.364-2.492-.364H43.53v4.356zM58.626 23.14v15.528h-3.01V23.14h3.01zM26.041 8.631c.11.565.662 3.25.81 3.781a1.652 1.652 0 00-.252-.021c-.099 0-.175.011-.246.021a17.951 17.951 0 00-.246-1.467c-.11-.005-.422-.016-.728-.016-.24 0-.481.011-.722.016a19.47 19.47 0 00-.859 1.467c-.05-.01-.099-.021-.175-.021-.061 0-.126.011-.209.021A135.47 135.47 0 0025.28 9.63c.274-.418.465-.69.657-.999h.104zm-.278.663h-.018l-.952 1.44c.423.02.847.02 1.27 0l-.3-1.44zm2.03 3.118a1.12 1.12 0 00-.443 0c.355-1.309.744-3.27.86-4.064.059.011.114.022.207.022.082 0 .174-.011.252-.022-.082.288-.734 3.135-.876 4.064zm1.479-.989a.608.608 0 01-.394-.608c0-.51.415-1.027 1.198-1.027.18 0 .256.022.415.065.099.028.164.028.28.028.131 0 .399-.017.541-.022 0 .032-.011.07-.011.114s.011.082.011.114c-.173-.01-.347-.02-.52-.026.06.076.154.2.154.445 0 .304-.159.685-.526.886-.257.141-.564.152-.739.152a5.27 5.27 0 01-.317-.011c-.06.038-.224.13-.224.299 0 .217.229.222.404.222.619.006.815.006 1.018.126.203.119.24.337.24.472 0 .419-.36 1.179-1.41 1.179-.258 0-.51-.043-.69-.19a.676.676 0 01-.253-.516c0-.255.154-.494.362-.625a1.4 1.4 0 01.285-.136l.005-.038c-.082-.021-.3-.087-.3-.314 0-.337.306-.473.47-.55v-.038zm.18 2.245c.656 0 .979-.462.979-.848 0-.424-.449-.44-.744-.44-.143 0-.41.011-.602.136a.677.677 0 00-.306.581c0 .407.322.57.673.57zm.35-2.282c.53 0 .727-.593.727-.924 0-.315-.186-.516-.481-.516-.553 0-.75.581-.75.896 0 .413.274.543.504.543zm3.618.837c-.272.157-.58.239-.892.238-.471 0-1.09-.255-1.09-1.119 0-.853.57-1.548 1.407-1.548.52 0 .98.233.98.89 0 .202-.039.349-.061.441a17.636 17.636 0 00-1.21-.027c-.207 0-.492.005-.661.01-.018.104-.027.21-.027.315 0 .707.487.843.793.843.422 0 .69-.196.816-.288h.016l-.071.244zm-1.49-1.333c.225.017.52.022.745.022.213 0 .525 0 .728-.021a1.17 1.17 0 00.032-.294c0-.483-.306-.646-.591-.646-.295-.001-.75.19-.914.94zm3.049-.646h.01c.126-.13.406-.435.899-.435.525 0 .622.337.673.527.169-.212.454-.527.956-.527.477 0 .712.304.712.575 0 .115-.038.3-.082.506l-.208.989c-.066.31-.077.445-.088.532a1.211 1.211 0 00-.449 0c.093-.266.427-1.581.427-1.869 0-.304-.208-.479-.498-.479a.826.826 0 00-.782.62c-.088.293-.285 1.31-.35 1.727a1.327 1.327 0 00-.208-.021c-.082 0-.164.011-.235.021.12-.375.416-1.58.416-1.912 0-.32-.268-.435-.487-.435-.121 0-.591.038-.783.63-.087.272-.3 1.386-.34 1.717a1.263 1.263 0 00-.219-.021c-.076 0-.159.011-.218.021.18-.625.47-1.972.547-2.575a.927.927 0 00.191.021c.077 0 .154-.01.225-.02l-.11.408zm5.736 1.978a1.77 1.77 0 01-.89.238c-.473 0-1.09-.255-1.09-1.119 0-.853.568-1.548 1.405-1.548.52 0 .98.233.98.89 0 .202-.038.349-.06.441a17.636 17.636 0 00-1.21-.027c-.207 0-.492.005-.662.01-.01.071-.027.174-.027.315 0 .707.487.843.793.843.422 0 .69-.196.816-.288h.016l-.07.244zm-1.488-1.332c.224.017.52.022.744.022.213 0 .525 0 .728-.021a1.17 1.17 0 00.032-.294c0-.483-.306-.646-.591-.646-.295-.001-.748.19-.913.94zm4.225 1.332c-.272.157-.58.24-.892.238-.471 0-1.09-.255-1.09-1.119 0-.853.57-1.548 1.407-1.548.52 0 .98.233.98.89 0 .202-.04.349-.06.441a17.645 17.645 0 00-1.21-.027c-.208 0-.492.005-.662.01-.011.071-.028.174-.028.315 0 .707.487.843.794.843.42 0 .689-.196.815-.288h.016l-.07.244zm-1.488-1.332c.247.016.496.023.744.022.213 0 .525 0 .728-.021a1.17 1.17 0 00.032-.294c0-.483-.306-.646-.591-.646-.295-.001-.75.19-.913.94zm3.07-.651l.023.01c.153-.19.487-.44.903-.44.387 0 .766.217.766.652 0 .141-.012.196-.126.684-.06.256-.225 1.038-.247 1.266a1.193 1.193 0 00-.449 0c.083-.244.41-1.489.41-1.863 0-.326-.267-.483-.54-.483a.837.837 0 00-.794.581c-.126.375-.35 1.592-.378 1.766a1.075 1.075 0 00-.421 0c.148-.5.481-2.136.553-2.575.055.01.12.021.197.021.066 0 .142-.01.208-.021l-.104.402zm4.762-1.598c.317.565 1.823 2.739 2.09 3.048.093-.342.46-2.092.564-3 .05.011.125.022.191.022.07 0 .11-.011.165-.021-.203.695-.766 3.276-.827 3.781h-.076c-.17-.298-1.865-2.744-2.09-3.026-.159.64-.536 2.466-.575 2.966a.94.94 0 00-.186-.021c-.06 0-.137.01-.19.021.25-.744.787-3.287.868-3.771h.066v.001zm5.08 3.401l-.022-.022a1.21 1.21 0 01-.93.451c-.362 0-.767-.222-.767-.624 0-.137.072-.419.17-.859.044-.19.164-.76.214-1.151.066.01.148.02.24.02.09 0 .165-.01.237-.02-.148.543-.428 1.553-.428 1.852 0 .337.197.522.531.522.421 0 .705-.3.816-.63.136-.408.344-1.646.36-1.744.077.01.149.02.218.02.083 0 .159-.01.226-.02-.11.358-.482 1.917-.553 2.575-.066-.011-.127-.022-.198-.022-.08 0-.152.011-.212.022l.098-.37zm2.31-2.885c-.071.25-.126.5-.18.75.17 0 .377-.016.568-.021a.792.792 0 00-.032.222c-.191-.006-.417-.022-.58-.022l-.214 1.022c-.05.233-.126.587-.126.76a.38.38 0 00.388.397.72.72 0 00.362-.109l-.01.141a.978.978 0 01-.56.169c-.283 0-.585-.174-.585-.51 0-.142.039-.305.077-.485.158-.744.186-.825.295-1.385-.104 0-.24.005-.36.01a.528.528 0 00.032-.211c.115.005.258.021.35.021l.099-.576.476-.173zm-43.38 7.351c.634.06.82.451.82.734 0 .397-.256.826-.705 1.049-.36.18-.782.196-.985.196-.109 0-.59-.022-.69-.022-.103 0-.174.011-.246.022.28-1.049.64-2.766.793-3.722.078.006.197.022.29.022.208 0 .46-.022.711-.022.302 0 .51.038.673.125.253.136.34.38.34.56 0 .543-.547.94-.99 1.021l-.01.038zm-.29.104a2.782 2.782 0 00-.377-.022c-.099 0-.214 0-.306.006-.12.555-.23 1.113-.328 1.673.137.027.268.027.35.027.181 0 .465-.016.7-.114.34-.141.619-.538.619-.934-.001-.386-.296-.587-.657-.636zm.192-1.668c-.164 0-.334.005-.498.021a38.784 38.784 0 00-.334 1.44c.082.011.164.017.285.017.192 0 .52-.016.766-.163a.888.888 0 00.437-.756c0-.401-.284-.559-.656-.559zm3.481 3.352c-.272.158-.58.24-.892.24-.47 0-1.088-.256-1.088-1.12 0-.853.569-1.548 1.406-1.548.52 0 .98.233.98.89 0 .201-.04.348-.061.44a17.636 17.636 0 00-1.21-.027c-.207 0-.492.006-.661.011-.018.104-.027.21-.028.315 0 .706.487.842.793.842.422 0 .69-.195.816-.288h.017l-.072.245zM15.7 16.965c.225.016.52.022.744.022.214 0 .526 0 .729-.022.016-.066.032-.152.032-.293 0-.484-.306-.647-.59-.647-.295 0-.75.19-.915.94zm3.766-1.103c.865 0 1.165.51 1.165 1.06 0 .798-.607 1.619-1.548 1.619-.903 0-1.144-.625-1.144-1.093 0-.776.58-1.586 1.527-1.586zm-.4 2.505c.827 0 1.134-1.005 1.134-1.543 0-.451-.258-.788-.729-.788-.793 0-1.099.94-1.099 1.543 0 .457.203.788.695.788zm2.492-.87c-.087-.038-.394-.168-.394-.608 0-.51.416-1.027 1.198-1.027.18 0 .258.022.417.066a.918.918 0 00.278.026c.132 0 .399-.016.542-.021 0 .032-.011.07-.011.114 0 .043.01.082.01.114-.172-.011-.346-.02-.52-.027.06.076.154.2.154.445 0 .304-.158.685-.525.886-.257.141-.564.152-.739.152a4.55 4.55 0 01-.317-.011c-.06.038-.224.13-.224.299 0 .218.23.223.404.223.62.006.817.006 1.018.125.203.12.241.337.241.473 0 .418-.361 1.179-1.411 1.179-.257 0-.51-.043-.69-.191a.675.675 0 01-.252-.516c0-.255.153-.494.361-.625.121-.076.225-.114.285-.136l.006-.038c-.082-.021-.301-.087-.301-.315 0-.337.306-.472.47-.548v-.038zm.18 2.244c.657 0 .98-.462.98-.847 0-.423-.449-.44-.744-.44-.143 0-.41.011-.602.136a.678.678 0 00-.307.581c0 .407.323.57.673.57zm.35-2.282c.532 0 .728-.592.728-.924 0-.315-.187-.516-.482-.516-.552 0-.749.582-.749.897 0 .413.273.543.503.543zm3.619.837c-.272.158-.58.24-.893.24-.47 0-1.088-.256-1.088-1.12 0-.853.569-1.548 1.406-1.548.52 0 .98.233.98.89 0 .201-.039.348-.06.44a17.672 17.672 0 00-1.21-.027c-.208 0-.492.006-.662.011-.018.104-.027.21-.028.315 0 .706.488.842.794.842.421 0 .69-.195.816-.288h.016l-.071.245zm-1.489-1.331c.248.015.496.022.745.022.213 0 .525 0 .727-.022.017-.066.033-.152.033-.293 0-.484-.306-.647-.591-.647-.296 0-.75.19-.914.94zm3.071-.652l.021.01c.154-.19.488-.44.903-.44.389 0 .766.218.766.652 0 .142-.011.196-.125.685-.062.255-.225 1.038-.247 1.266a1.209 1.209 0 00-.448 0c.08-.244.41-1.488.41-1.863 0-.326-.269-.484-.541-.484a.837.837 0 00-.794.581c-.126.375-.35 1.592-.377 1.765a1.085 1.085 0 00-.422 0c.148-.499.481-2.135.553-2.575a.981.981 0 00.404 0l-.103.402zm4.225 1.69c-.18.228-.438.554-.974.554-.662 0-.985-.5-.985-1.06 0-.685.466-1.625 1.428-1.625.586 0 .75.364.827.538h.021c.132-.684.286-1.396.378-1.988a1.164 1.164 0 00.432 0c-.317 1.287-.432 1.885-.667 3.031-.07.343-.133.687-.187 1.032-.049-.01-.092-.021-.186-.021-.093 0-.148.011-.208.021l.12-.483zm-.86.342c.827 0 1.062-1.065 1.062-1.538 0-.217-.071-.739-.667-.739-.853 0-1.056 1.043-1.056 1.462 0 .527.241.815.662.815zm3.974-.049c-.272.158-.579.24-.892.24-.47 0-1.088-.256-1.088-1.12 0-.853.57-1.548 1.407-1.548.52 0 .978.233.978.89 0 .201-.037.348-.06.44a17.654 17.654 0 00-1.209-.027c-.207 0-.492.006-.661.011-.018.104-.027.21-.028.315 0 .706.487.842.794.842.42 0 .689-.195.815-.288h.016l-.072.245zm-1.488-1.331c.225.016.52.022.744.022.214 0 .525 0 .728-.022.017-.066.033-.152.033-.293 0-.484-.307-.647-.59-.647-.297 0-.75.19-.915.94zm4.62-2.2c.078.012.157.02.235.021.088 0 .18-.01.252-.021a46.327 46.327 0 00-.799 3.721 1.51 1.51 0 00-.241-.021c-.082 0-.175.01-.246.021.28-1.048.64-2.765.799-3.721zm1.494 1.548l.022.01c.153-.19.487-.44.903-.44.389 0 .766.218.766.652 0 .142-.011.196-.126.685-.06.255-.224 1.038-.247 1.266a1.192 1.192 0 00-.448 0c.082-.244.41-1.488.41-1.863 0-.326-.268-.484-.542-.484a.836.836 0 00-.792.581c-.127.375-.35 1.592-.378 1.765a1.085 1.085 0 00-.421 0c.148-.499.481-2.135.553-2.575a.981.981 0 00.405 0l-.105.402zm3.776.033c-.053-.201-.24-.321-.447-.321a.52.52 0 00-.52.516c0 .266.224.37.47.479.23.103.493.222.493.576 0 .5-.493.95-1.128.95a1.07 1.07 0 01-.59-.157c.069-.115.127-.237.174-.364h.04c.08.218.3.326.54.326a.566.566 0 00.596-.56c0-.239-.147-.31-.437-.446-.235-.108-.499-.233-.499-.625 0-.37.269-.875 1.002-.875.197 0 .323.032.499.109-.11.245-.127.32-.143.391h-.05zm1.682-1.114c-.072.25-.126.5-.181.75.17 0 .377-.017.568-.022a.796.796 0 00-.032.223c-.191-.006-.415-.021-.58-.021l-.213 1.02c-.05.235-.126.588-.126.762 0 .288.23.396.388.396a.716.716 0 00.36-.108l-.01.14c-.147.114-.377.169-.558.169-.284 0-.585-.174-.585-.511 0-.141.038-.304.076-.483.159-.745.186-.826.296-1.386-.104 0-.24.005-.361.01a.534.534 0 00.032-.212c.115.006.257.022.35.022l.099-.576.477-.174zm2.49 3.064a1.77 1.77 0 01-.892.24c-.47 0-1.09-.256-1.09-1.12 0-.853.57-1.548 1.408-1.548.52 0 .978.233.978.89 0 .201-.038.348-.06.44a17.663 17.663 0 00-1.208-.027c-.21 0-.493.006-.664.011-.01.071-.026.174-.026.315 0 .706.486.842.793.842.421 0 .689-.195.816-.288h.016l-.071.245zm-1.488-1.331c.247.015.495.022.743.022.215 0 .526 0 .728-.022.017-.066.033-.152.033-.293 0-.484-.307-.647-.59-.647-.297 0-.751.19-.914.94zm2.654 1.521a1.137 1.137 0 00-.443 0c.356-1.31.744-3.27.859-4.064.06.01.114.022.208.022.082 0 .175-.011.252-.022-.083.288-.734 3.136-.876 4.064zm1.32 0a1.137 1.137 0 00-.444 0c.357-1.31.744-3.27.86-4.064.06.01.114.022.207.022.082 0 .176-.011.253-.022-.083.288-.734 3.136-.876 4.064zm1.335 0a2.057 2.057 0 00-.252-.021c-.087 0-.158.01-.214.021.24-.771.537-2.369.564-2.575.081.011.153.022.23.022.082 0 .159-.011.224-.022-.104.359-.48 1.929-.552 2.575zm.514-3.694a.26.26 0 110 .521.262.262 0 01-.262-.26.26.26 0 01.262-.261zm1.205 1.52l.021.012c.153-.19.487-.44.903-.44.389 0 .766.217.766.651 0 .142-.01.196-.126.685-.06.255-.224 1.038-.246 1.266a1.208 1.208 0 00-.45 0c.084-.244.412-1.488.412-1.863 0-.326-.269-.484-.542-.484a.836.836 0 00-.793.581c-.126.375-.35 1.592-.377 1.765a1.085 1.085 0 00-.422 0c.149-.499.482-2.135.553-2.575a.977.977 0 00.405 0l-.104.402zm2.785 1.186c-.087-.038-.394-.169-.394-.609 0-.51.417-1.027 1.2-1.027.18 0 .256.022.415.066a.922.922 0 00.278.026c.132 0 .4-.016.541-.021 0 .032-.01.07-.01.114 0 .043.01.082.01.114-.173-.011-.346-.02-.519-.027.06.076.153.2.153.445 0 .304-.159.685-.525.886-.257.141-.563.152-.739.152-.12 0-.236-.005-.317-.011-.06.038-.224.13-.224.299 0 .218.23.223.405.223.618.006.815.006 1.017.125.203.12.24.337.24.473 0 .418-.36 1.179-1.41 1.179-.258 0-.51-.043-.69-.191a.674.674 0 01-.252-.516c0-.255.153-.494.36-.625.121-.076.225-.114.285-.136l.006-.038c-.082-.021-.301-.087-.301-.315 0-.337.306-.472.47-.548v-.038h.001zm.181 2.244c.657 0 .98-.462.98-.848 0-.423-.45-.44-.745-.44-.142 0-.41.011-.602.136a.679.679 0 00-.307.581c0 .407.324.57.674.57zm.35-2.283c.531 0 .728-.592.728-.924 0-.315-.186-.516-.481-.516-.553 0-.75.582-.75.897 0 .413.273.543.504.543z" fill="#FFF" fill-rule="nonzero"/><path d="M6.006 46c-.555-.001-1.004-.41-1.006-.915v-.17c0-.503.453-.915 1.006-.915h52.988c.554 0 1.006.412 1.006.915v.17c0 .503-.452.915-1.006.915H6.006z" fill="#FFEF00"/></g></svg>