<svg id="Laag_1" data-name="Laag 1" xmlns="http://www.w3.org/2000/svg" viewBox="0 0 198.43 198.43"><defs><style>.cls-1{fill:#004380}</style></defs><path class="cls-1" d="M72.48 92.12a19.54 19.54 0 01-7.91 1.6c-9.8 0-11.42-8-6.91-18.67C63 62.38 72.91 55.38 81.49 55.38c3.32 0 5.47.88 6.28 1.65l-4.15 6.61a7.81 7.81 0 00-4.8-1.38c-5 0-10.71 4-14.24 12.34-3.16 7.4-1.79 12.13 3.89 12.13a15.75 15.75 0 005.9-1.21z"/><path d="M158.37 21.57c-5.89 6-13.81 10-20.11 15.58-21-18.41-53.73-.95-69.87 14.58-12.2 11.74-25.51 27.74-24.13 49.77 1.85 29.63 43.12 28.44 61.33 12.57 3.75 5.46 6.64 11.79 9.55 18.1-30.39 20-87 21.63-82.94-29.66 1.93-24.14 18.3-45 32.67-58.31 16.13-15 36.63-28.5 60.32-30.67 14.65-1.34 24.65 2.28 33.18 8" fill="#e61d48"/><path class="cls-1" d="M154.07 168.86H150v15.79h9v-3.48h-4.92zm-6.85 3.48v-3.48h-9v15.79h9v-3.48h-4.88v-2.73H147V175h-4.63v-2.64zm-19.83 0a4.42 4.42 0 014.46 4.17 4.47 4.47 0 11-8.93 0 4.42 4.42 0 014.46-4.17m0-4c-4.55 0-8.73 3.35-8.73 8.13a8.73 8.73 0 0017.47 0c0-4.78-4.19-8.13-8.73-8.13m-20 4h1a4.16 4.16 0 014.5 4.42c0 3.08-2.1 4.42-4.55 4.42h-.92zm-4.1 12.32h5.82a7.9 7.9 0 100-15.79h-5.82zm-18.42-12.32h1a4.16 4.16 0 014.5 4.42c0 3.08-2.09 4.42-4.55 4.42h-.92zm-4.1 12.32h5.82a7.9 7.9 0 100-15.79h-5.83zm-2.85-12.32v-3.48h-9v15.79h9v-3.48H73v-2.73h4.63V175H73v-2.64zm-19.94 0a4.42 4.42 0 014.46 4.17 4.47 4.47 0 11-8.93 0 4.42 4.42 0 014.49-4.2m0-4c-4.55 0-8.73 3.35-8.73 8.13a8.39 8.39 0 008.73 8.74 8.4 8.4 0 008.73-8.71c0-4.78-4.19-8.13-8.73-8.13m-18.39 7.5v3.22h3.35a3 3 0 01-3.31 2.75c-2.7 0-4.17-2.5-4.17-4.95s1.4-5 4.11-5a3.57 3.57 0 013.41 2.53l3.89-1.63a7.33 7.33 0 00-7.12-4.42c-5.09 0-8.57 3.37-8.57 8.5 0 5 3.45 8.33 8.42 8.33a7.64 7.64 0 006.51-3.1c1.4-2 1.57-3.94 1.61-6.24zm45.9-88.49a9.85 9.85 0 002.5.17 8.57 8.57 0 008-5.59c1.69-3.93-.31-5.43-3.62-5.43h-2.27zm7.25-17.06h2.18a7.68 7.68 0 007.37-4.73c1.24-2.91.19-4.45-2.81-4.45a11 11 0 00-3 .28zm-.35-14.66a45.13 45.13 0 018.95-.86c4.05 0 6.32.51 7.75 2.17 1.44 1.42 1.77 4.05.26 7.59a15.52 15.52 0 01-8.26 8.16l-.05.11c2.87 1.14 3.92 4.51 1.81 9.47a19.33 19.33 0 01-6.51 8.16c-3.08 2.22-7.19 3.48-13 3.48a35.45 35.45 0 01-6.95-.57zm26.75-.62h18.12l-3.07 7.22H122.8l-3.78 8.89h10.67l-3.05 7.16h-10.67l-6.64 15.65h-6.71l16.54-38.92zm5.05 56.53l1.55 1.79 3.07-2.66 2 2.35-3.07 2.66 1.6 1.84 3.24-2.81 2 2.35-6 5.17-9.25-10.68 6-5.17 2 2.35zm21.53-6.14l-3 3.32-6.31-1.14 4 3.66-2.43 2.68-10.45-9.51 3.63-4c1.85-2 4.23-2.67 6.46-.63a3.78 3.78 0 01.91 4.93zm-11.1.61l.23-.26c.79-.87 1.52-2 .38-3s-2.19-.21-3 .66l-.24.26zm6.07-17.94l2.52-3.69 2.42 8.32 9.53-.79-2.63 3.86-7.68.4 5.06 3.45-2 3-11.67-7.95 2-3 4.79 3.33zm7.76-7.4l2.12 1 1.79-3.65 2.79 1.37-1.79 3.65 2.18 1.08 1.89-3.84 2.79 1.38-3.48 7.08-12.67-6.24 3.48-7.08 2.79 1.37zm.32-7.53l1-3.46 10.13-3.93-8.29-2.41 1-3.46 13.56 3.94-1 3.46-10.15 3.92 8.31 2.42-1 3.46zM153 57.59l.16-5.11a7.06 7.06 0 0114.11.44l-.19 5.08zm11.12-3.25v-.81a4 4 0 10-7.9-.29v.85z"/></svg>