<svg width="34" height="29" xmlns="http://www.w3.org/2000/svg"><g transform="translate(-5 -5)" fill="none" fill-rule="evenodd"><path d="M5.765 5.765h17.097c11.604 0 16.052 6.2 16.052 14.02 0 9.379-6.211 14.085-16.052 14.085H5.765V5.765zm1.658 1.622v24.862h15.439c9.321 0 14.393-4.25 14.393-12.463 0-8.441-5.498-12.4-14.393-12.4H7.422z" fill="#000" fill-rule="nonzero"/><path fill="#000" d="M9.368 21.619h5.045v8.648H9.368z"/><circle fill="#000" cx="12.251" cy="17.295" r="2.883"/><path d="M24.348 18.676v1.4h-3.476V14.46h3.365v1.399h-1.96v.65h1.853v1.4h-1.852v.768h2.07zm.608 1.4l1.7-5.618h2l1.7 5.619h-1.463l-.319-1.087h-1.838l-.32 1.087h-1.46zm2.192-2.484h1.017l-.466-1.587h-.085l-.466 1.587zm3.914-3.134h1.407v4.219h2.08c-.57-7.655-6.617-9.309-12.114-9.309h-5.86v5.093h.868c1.58 0 2.562 1.068 2.562 2.785 0 1.773-.958 2.83-2.562 2.83h-.867v10.19h5.86c8.933 0 12.044-4.13 12.154-10.19h-3.528v-5.618zM16.575 15.86v2.817h.868c.601 0 1.157-.174 1.157-1.431 0-1.229-.618-1.386-1.157-1.386h-.868z" fill="#D50072" fill-rule="nonzero"/></g></svg>