<svg width="48" height="70" xmlns="http://www.w3.org/2000/svg"><path d="M31.249 34.123c-.855 2.23-5.301 1.466-5.441-.693 0-.087.119-.067.17-.054 1.98.454 3.862.671 5.139.665.046 0 .153-.026.132.082zm14.62-14.784c.158 5.872-3.401 12.16-11.024 12.204-1.95.002-1.364 3.076-4.92 1.531-2.563-1.702-4.03 1.649-5.852-1.957-.398-1.04-1-1.454-1.777-1.645-7.525-1.835-9.926-12.033-3.293-20.265 1.31.772 1.792.89 3.19-.373.732-.664 1.957-1.396 2.623-1.638 1.594-.601 2.46-1.27 1.079-4.265C24.125-.955 20.5.143 18.844 1.486c-1.87 1.521-3.183 3.966-.774 6.848-6.742 4.477-7.898 9.976-7.741 14.754.159 5.085-1.162 4.65.486 9.826.145.453-.178.442-.424.296-7.027-4.43-10.826-17.934.125-25.38.247-.217.145-.5-.756.017C.281 12.783-.59 22.342.983 28.781c.768 3.118-.4 3.694.829 7.79 2.82 8.541 5.227 9.215 8.624 9.462 6.184 0 1.99-3.356 2.216-7.574 0-.248.307-.367.48.14 3.404 7.515 5.807 14.352 14.752 13.712 5.18-.662 2.306-3.196 1.991-4.63-3.808-12.442 5.433-15.376 2.816-3.244-1.727 6.95 3.733 6.252 7.579 3.76 3.963-2.564 8.921-19.48 6.05-28.79-.175-.571-.465-.539-.45-.068zm-1.595 34.416v-.575h.385c.196 0 .408.051.408.276 0 .286-.212.3-.46.3h-.333zm1.134 1.038l-.535-.816c.278-.034.489-.177.489-.5 0-.368-.217-.526-.657-.526h-.723v1.842h.292v-.795h.324l.5.795h.31zm.537 2.254h-8.287c-.48 0-.864.38-.864.853v10.834h.002a.934.934 0 00.928.888h2.349a.932.932 0 00.917-.913v-5.06l3.376-.009a.895.895 0 00.893-.898.902.902 0 00-.91-.89h-3.354l-.005-2.893h5a.963.963 0 00.929-.957.967.967 0 00-.974-.955zm-36.202-9.47c.909 0 1.658.732 1.658 1.625 0 .903-.75 1.631-1.658 1.631a1.642 1.642 0 01-1.654-1.63c0-.894.74-1.625 1.654-1.625zm0 3.585c1.098 0 1.979-.88 1.979-1.96 0-1.071-.88-1.95-1.98-1.95-1.093 0-1.986.879-1.986 1.95 0 1.08.895 1.96 1.987 1.96zm33.213 2.703c0-.898.741-1.623 1.663-1.623.91 0 1.657.725 1.657 1.623 0 .904-.748 1.63-1.657 1.63-.922 0-1.663-.726-1.663-1.63zm3.644 0c0-1.08-.891-1.954-1.98-1.954-1.106 0-1.986.873-1.986 1.954 0 1.088.88 1.953 1.985 1.953 1.09 0 1.981-.865 1.981-1.953zM9.793 50.184a.797.797 0 00.806-.676h-.291c-.039.236-.24.402-.515.402-.382 0-.625-.333-.625-.712 0-.396.219-.692.622-.692.267 0 .465.152.518.385h.278c-.05-.432-.39-.673-.805-.673-.591 0-.93.424-.93.98 0 .56.367.986.942.986zM38.83 8.857c.836.34 2.373 1.52 3.097 2.507 1.636 2.235 4.15-.075 5.136-1.976.721-1.417.42-3.432-1.465-5.176-1.714-1.606-5.134-2.23-7.099.991-1.203 1.977-.957 3.12.33 3.654zM26.426 30.143c.79.26 1.3.362 1.986 1.229.624 1.192.346-.356 2.704-.606 1.564-.159 1.212-1.587.027-1.945-1.06-.311-2.667-.514-3.803-.493-2.012.046-1.962 1.56-.914 1.815zm-3.327-12.677c-4.058 2.121-3.832 6.713-1.479 7.893 2.914 1.204 4.004-2.34 5.587-3.634.081-.078.173-.22.173-.313-.018-2.691-1.453-5.227-4.281-3.946zm15.45 9.692c2.28-1.182 2.248-6.174-.791-7.974-2.458-1.431-3.803.499-4.695 2.865-.068.186-.073.372.03.468 1.507 1.662 1.668 6.61 5.457 4.641zm-4.084 29.867c-.43 0-.798.269-.94.635l-1.887 4.728-.182.539-.138-.549-1.478-4.597c0-.019 0-.034-.006-.043v-.011a1.01 1.01 0 00-.947-.66h-2.37a.993.993 0 00-.948.985c0 .142.055.329.114.504l.31.962-1.166 2.876-.19.533-.142-.54-1.46-4.606c-.016-.019-.016-.034-.023-.043v-.011a.986.986 0 00-.932-.66h-2.373c-.54.03-.958.456-.958.985 0 .142.066.329.114.504l3.558 10.405c.105.426.495.74.962.74.44 0 .817-.287.95-.687l2.483-6.17.173-.55.157.544 2.084 6.123a1 1 0 00.97.74c.453 0 .84-.3.964-.717l4.204-10.542a.998.998 0 00.098-.424.999.999 0 00-1.001-.993zm-17.675 0a.994.994 0 00-.932.635l-1.897 4.728-.168.539-.15-.549-1.469-4.597c0-.019-.012-.034-.017-.043v-.011a1 1 0 00-.938-.66H8.85a.997.997 0 00-.957.985c0 .142.07.329.115.504l.308.962-1.162 2.876-.182.533-.151-.54-1.46-4.606c-.015-.019-.015-.034-.02-.043v-.011a1.003 1.003 0 00-.938-.66H2.034c-.525.03-.957.456-.957.985 0 .142.058.329.119.504l3.546 10.405c.106.426.506.74.963.74a.984.984 0 00.95-.687l2.485-6.17.184-.55.149.544 2.09 6.123a1.004 1.004 0 001.927.023l4.204-10.542c.06-.13.1-.275.1-.424a1 1 0 00-1.004-.993z" fill="#231F20" fill-rule="evenodd"/></svg>