<?xml version="1.0" encoding="utf-8"?>
<!-- Generator: Adobe Illustrator 25.1.0, SVG Export Plug-In . SVG Version: 6.00 Build 0)  -->
<svg version="1.1" id="Laag_1" xmlns="http://www.w3.org/2000/svg" xmlns:xlink="http://www.w3.org/1999/xlink" x="0px" y="0px"
	 viewBox="0 0 340.7 394.7" style="enable-background:new 0 0 340.7 394.7;" xml:space="preserve">
<style type="text/css">
	.st0{fill:#FFFFFF;}
	.st1{fill:#A3BA9A;}
	.st2{fill:#262223;}
	.st3{fill:#AEC2A6;}
	.st4{fill:#A9BFA1;}
	.st5{fill:#E6EBE3;}
</style>
<g id="Laag_1-2">
	<path class="st0" d="M106.5,21.4c0,0,12.1,19.7,2.3,42.7s-19.5,37-57.2,33.8S0.7,67.6,0.4,59.9S-5.2,6.4,36.9,0.8
		S106.5,21.4,106.5,21.4z"/>
	<path class="st1" d="M340.7,221.6c0,28.3-3.9,55.9-15.4,82.1c-16.6,37.6-45.1,62.6-83.1,77.1c-29.9,11.4-61.1,15.3-92.9,13.6
		c-28.7-1.5-55.6-9.1-78.5-27.5c-19.4-15.6-32.6-35.7-42.1-58.4c-11.5-27.3-17.7-55.9-22-85c-2.8-18-5.6-36.1-4.9-54.5
		c0.9-26.3,7.1-51.2,19.8-74.3c1.8-3.3,3.3-4.2,7.2-2.8c13.7,4.8,28,8.4,42.5,6.1c22-3.5,33.8-18.3,39.1-38.9
		c3.1-12,3.5-24-3.3-35.2c-1.8-3,0.8-3.4,2.4-4c14.1-5.8,28.8-10.1,43.8-12.9c16.7-3.1,33.5-5,50.5-4.2
		c32.4,1.6,60.9,12.5,83.4,36.8c17.9,19.3,28.8,42.5,36.5,67.3c8.4,26.9,12.9,54.5,15.3,82.5C339.8,200.1,340.9,210.8,340.7,221.6z"
		/>
	<path class="st2" d="M56.5,30.3c-2,1.4-3.3,2.3-4.5,3.1c-1.8,1.2-2.3-0.4-3-1.4s-1.8-2.1,0-3.1c4.1-2.1,7.4-8.1,12.3-5.9
		c3.4,1.6,1.2,7.2,1.3,11c0.2,10.6,0.1,21.3,0.1,31.9c0,2.1,0.3,3.7-2.9,3.8s-3.3-1.3-3.3-3.8C56.6,54.2,56.5,42.6,56.5,30.3z"/>
	<path class="st3" d="M109.4,265l0.4,0.4c-0.1,0-0.2,0-0.2,0C109.5,265.2,109.4,265.1,109.4,265L109.4,265z"/>
	<path class="st4" d="M122.3,276c-0.1,0-0.2-0.1-0.3-0.2c-0.1,0,0-0.2-0.1-0.3L122.3,276z"/>
</g>
<g id="Laag_2-2">
	<path class="st5" d="M237.1,186.4c4.6,6,6.6,12.4,4.2,20c-0.4,1.6-0.3,3.3,0.2,4.9c0.6,2.4,0.6,5-0.2,7.3
		c-1.7,6.8-15.8,22.7-22.6,23.4c-8.6,0.9-17.2,0.5-25.7-1.3c-0.7-0.1-1.3-0.4-1.8-0.9c-8.4-9.9-19.9-4.8-30.1-6.5
		c6.2,6.3,13.6,10.7,21.4,14.8c1.1-2.2-0.5-3.4-1.2-4.7c-1-1.9-1.8-3.8,0.2-5.3c2.3-1.7,3.7,0.1,4.9,1.8c2.5,3.8,4.1,8,4.8,12.4
		c0.8,3.9-1.9,4.9-4.9,5.5c-13.8,2.8-27.6,5.4-41.4,8.2c-2.4,0.5-4.8,1-7.8,1.6c3.8,4.3,4.8,8.6,1.2,12.8c-4.2,4.8-8.4,1.1-12.8-1.2
		c0,2.8,0,5,0,7.3c0.1,3.8-2.3,4.7-4.8,2.9c-7.6-5.5-15.1-11.3-22.3-17.5c-2.7-2.3-0.5-4.7,2.4-5.3c2.7-0.5,5.4-0.8,8.1-0.9
		c0.2-2.1-1.5-2.3-2.3-3.2c-2.4-2.7-4.8-5.7-2.3-9.3s6.1-5.1,10-3.3s4,0.1,4-3c0-15.8,0.1-31.6,0.2-47.4c0-7,1.2-7.9,8-6
		c2.4,0.7,4.7,1.6,6.9,2.7c2.1,1,4.8,1.8,3.8,4.9c-1.1,3.3-3.7,1.6-6.8,1.1c3.5,6.3,7.8,10.9,13.1,16.5c-1.1-8.1-2.1-14.9-3-21.8
		c-0.2-1.9-1-2.3-2.7-2.8c-10-2.7-14.7-10.1-13.4-20.6c0.2-2,0-4-0.5-5.9c-2-8,1.8-16.4,9.2-20.1c1.7-0.9,3.2-2.3,4.2-3.9
		c4.1-6.3,10.1-8.8,17.5-8c1.7,0.2,3.1,0.8,4.5-0.8c3.7-3.9,8.5-5,13.7-4.5c2.6,0.4,5.3-0.3,7.4-2c4.8-4.1,10.4-5,16.4-3.4
		c1.6,0.5,3.3,0.1,4.5-1c11.6-8.3,23.1-4.8,27.5,8.6c0.4,1.7,1.7,3.1,3.5,3.5c6.9,2.2,10.7,7.4,11.4,14.3c0.5,3.6,1.6,7,3.3,10.1
		c3.9,7.5,2.1,17.6-3.5,23.7c-1.5,1.8-4,2.6-6.3,1.9c-0.6-2.4,0.1-4.3,1.7-6.3c5.6-7.1,5.4-13.4-0.2-20.2c-1.3-1.6-1.3-3-1-5
		c1-7.2-3.1-12.4-10.4-13.1c-3.3-0.3-4.3-1.6-4.3-4.6c-0.1-4.9-2.2-8.6-6.9-10.5s-8.6,0-11.7,3.2c-2.7,2.8-5.1,3.7-8.7,1.7
		s-7.4-0.9-10.8,1.2c-0.8,0.5-2.1,1.4-1.4,2.2c2.5,2.8,2.8,7.4,7.6,8.3c5.5,1,10.1,4.1,12.1,9.3c1.5,4.1,3.7,7.9,6.5,11.3
		c7.5,8.7-0.3,17.7,0.1,26.6c0,3.7-1.5,7.3-4.2,9.8c-0.6,0.6-1.2,1.2-1.8,1.8c-2.7,3-7.4,2.8-9.9,5.2c-5.1,5-10.5,7.8-17.7,7.2
		c2.1,4.2,3.6,5.7,8.5,7.6c2.7,1,3.8,2.5,4.3,5.3c1.3,6.9,7.8,10.7,14.2,8.2c2.1-0.9,4.5-0.9,6.6,0.1c6.6,2.7,12,0.2,14.9-6.5
		c0.5-1.6,1.6-2.9,3.1-3.6c6.6-3.6,8.5-7.6,6.7-14.6c-0.6-1.9-0.6-3.9,0-5.8c2.4-7.2,1.4-10.6-4.6-15c-1.9-1.4-2.9-2.7-2.2-5.4
		c1.9-7.5-0.3-11.6-7.7-14.7c-2-0.9-3.8-1.8-3-4.3s2.8-2.2,4.9-1.6c7.5,2.1,12.7,9.2,12.8,17.6C235.2,183.2,234.3,185.5,237.1,186.4
		z M128.6,271.9l-0.4-0.4c0,0.1,0,0.2,0.1,0.3C128.4,271.8,128.5,271.8,128.6,271.9c1.2,1.9,2.4,4,5.1,3.8c0.5-0.1,0.9-0.5,0.9-1.1
		c0-0.1-0.1-0.3-0.1-0.4C133.2,271.7,130.9,271.7,128.6,271.9z M115.6,260.9c0.1,0.1,0.1,0.2,0.2,0.3c0,0,0.2,0,0.2,0L115.6,260.9
		c0.4-1.8-0.5-3.2-1.4-4.5c-0.8-1.2-2.1-1.9-3.4-0.8c-1.7,1.5,0.3,2.3,1.1,3C113.1,259.4,114.3,260.2,115.6,260.9L115.6,260.9z
		 M130.5,175.7c0,7.4,4,12.1,10.4,12.4c3.1,0.1,4.8,1.2,5.8,4.2c1,3.2,3.1,5.9,6,7.7c0.8,0.5,1.6,1.3,2.7,0.6
		c2.1-1.3,2.9-7.7,1.2-9.7c-3.1-3.5-6.1-7-9.3-10.4c-1.5-1.6-2.6-3.2-0.6-5.1c2.3-2.2,3.9-0.6,5.4,1.1c1.9,2.1,3.8,4.2,5.5,6.4
		c2.5,3.1,4.2,3.9,5.5-0.9c1.3-4.1,2.8-8.2,4.6-12.1c0.8-2,1.7-4.4,4.5-3.5c3.1,1,1.9,3.3,1.2,5.3c-0.5,1.4-1,2.8-1.5,4.2
		c-1.9,5.1-2,5.1,3.7,5.2c2,0,4.4-0.3,4.6,2.5c0.3,3-2.2,3.8-4.4,3.4c-7.5-1.1-10.2,3.3-12.1,9.4c-1.1,3.6-2.5,6.6,3.4,5.6
		c1.9-0.3,2.9,1.1,4.1,2.2c6.5,5.8,12.4,5.3,17.9-1.5c1.5-1.8,3.2-2.4,5.5-2.8c6.4-1.1,10.7-7,9.3-13.1c-0.7-3,0-5,1.4-7.4
		c3.2-5.4,2.1-11.4-2.8-15.1c-2-1.4-3.3-3.7-3.5-6.1c-0.9-5.9-6.1-10.1-12-9.7c-2.8,0.2-4.2-0.7-4.6-3.1
		c-1.7-9.8-14.6-12.9-20.2-4.7c-1.3,1.9-2.9,2.7-5.5,1.8c-7.4-2.4-11.3-0.7-15.1,6.2c-0.9,1.7-2.5,3-4.4,3.6
		c-5.2,2-8.8,7.3-7.5,12.1C130.9,168.6,131.6,172.4,130.5,175.7L130.5,175.7z M177.1,253.2c-14.5-9.2-28-19.8-40.3-31.7
		c4.6,14,7.1,27.6-4.3,40.5L177.1,253.2z M124.7,260.7c13.1-11.1,12.9-31.7,0-49V260.7z M164.7,208.2c-1.2,2-4.9-1-6.2,2.6
		c-1.8,4.8-3.7,9.6-5.5,14.3c-0.6,1.1-0.3,2.4,0.6,3.1c1.2,1,2.2,0.3,3.1-0.4c4.2-3,8.4-5.9,12.4-9.1c3.2-2.5-0.2-5.1-0.4-7.6
		C168.4,209.4,167.4,208.1,164.7,208.2L164.7,208.2z M119.1,280.3c-1-10.7-2.2-11.5-9.6-7.6L119.1,280.3z M169.3,226.8
		c4.2,1.2,8.7,1.4,13,0.7C178.1,225.5,174.2,219.5,169.3,226.8L169.3,226.8z M150.3,215.8c0.9-2.7,1.8-4.8,2.2-7
		c0.5-2.4-1.4-3.5-3.1-3.5c-2.7-0.1-1,2.1-0.9,3.2C148.6,210.7,148.2,213.1,150.3,215.8L150.3,215.8z"/>
</g>
</svg>
