<svg xmlns="http://www.w3.org/2000/svg" viewBox="0 0 339.02 392.21"><defs><style>.cls-1{fill:#fff;}.cls-2{fill:#a3ba9a;}.cls-3{fill:#2e2a2b;}.cls-4{fill:#e5ebe2;}.cls-5{fill:#e6ebe3;}.cls-6{fill:#e4eae1;}.cls-7{fill:#e8ede5;}.cls-8{fill:#e6ebe2;}</style></defs><g id="Laag_2" data-name="Laag 2"><g id="Laag_1-2" data-name="Laag 1"><path class="cls-1" d="M92.41,9.65s17.42,8.21,18.16,29.09S100.2,87.27,78.39,93s-44.18,1.39-53.64-4.29S2.53,46.2,13.72,31.52,34.19,7.38,51.11,5.14,92.41,9.65,92.41,9.65Z"/><path class="cls-2" d="M338.12,188.67c-3.27,33.4-8.6,66.41-19.08,98.41-7.82,23.88-18.6,46.12-35.88,64.82-20,21.66-45.1,33.74-73.84,37.86-39.66,5.68-78.51,1.6-115.72-13.66C45.21,356.26,16.32,319.8,5,269.1c-6-27-6-54.25-3.36-81.7,2.58-27,6.67-53.62,14.31-79.64,1.54-5.25,3.57-10.35,5.14-15.59,1-3.32,2.19-4.3,5.91-2.87a97.92,97.92,0,0,0,32,6.45c24,.8,41.8-12.36,48.48-35.51,2.26-7.85,3.77-15.87,2.8-24.08-1.35-11.42-7-20.23-17.94-26.51,22.43-8.88,44.68-10.87,67.45-9,24.46,2,48.22,7.08,70.93,16.45,41.55,17.15,74.34,44.13,93.57,85.64C337,130,341,158.83,338.12,188.67Z"/><path class="cls-3" d="M54.69,66.89c-9.47,0-9.41,0-8.68-9.38.48-6,2.49-11.23,7.13-15.36C57.09,38.62,59,34.2,58,28.8c-.78-4.07-3.43-5.71-6.7-3.32s-4.52.07-5.34-1.56c-1.07-2.14,1.5-2.94,3-3.64,8.51-4.07,15.83.61,16.05,10.06.14,6-1.67,11-6.19,15.1-3.65,3.3-6.48,7-6.18,12.44.14,2.41.71,3.27,3.11,3,1.81-.18,3.67.11,5.48-.07,2.38-.23,3.15.62,3.15,3.05s-.78,3.24-3.16,3C59,66.74,56.85,66.89,54.69,66.89Z"/></g><g id="Laag_2-2" data-name="Laag 2"><path class="cls-4" d="M210.67,245.77c5.73,8.36,9.81,17.16,11.24,27a19.43,19.43,0,0,1,.3,3.95c-.24,4.05-2.39,5.48-5.88,3.4-4.49-2.68-7.22-2.11-8.89,3-.88,2.75-3.06,4.7-5.13,6.64-1.31,1.23-2.53,2.79-4.67,2.28-2.52-.61-2.61-3-2.86-4.79a87.1,87.1,0,0,0-6.09-21.95c-3.79-9-10-15.9-17.52-21.86-2.19-1.73-3.57-.63-5.23.6-11.64,8.62-18.06,20.5-21.32,34.31-.83,3.54-1.32,7.16-2.06,10.72s-2.82,4.07-5.4,2c-3.11-2.47-6.13-5.21-7.55-9.08-1.34-3.66-3.27-4.36-6.8-2.56-5.92,3-7.48,2-7.07-4.57a51.37,51.37,0,0,1,9.26-25.9c1.91-2.81,1.46-3.77-1.69-4.62-6.84-1.87-8.7-4.36-8.6-11.32a57.48,57.48,0,0,1,5.77-25c3.39-6.84,6.63-8,13.7-5.2,8.4,3.33,15.72,8.54,23,13.78,5.63,4.06,17.69,4.24,23.27.16,7.5-5.49,15-11.06,23.85-14.18,6.79-2.38,9.52-1.19,12.85,5.31,3.77,7.35,5.23,15.36,6,23.44s-1.31,10.68-9,13.11C213.08,244.91,212,245.3,210.67,245.77Zm-54.26-16c-.56-2.09,1.31-4.73-1.38-6.71-7.34-5.39-14.77-10.6-23.11-14.4-3-1.38-4.85-.58-6.15,2.5a70.76,70.76,0,0,0-5.06,21.09c-.36,3.77,1,5.93,5,6.45,8.48,1.12,16.68-1.24,25-1.75C155.49,236.66,157.8,234.92,156.41,229.76Zm60.05-2c-.17-3.93-1.81-10.45-4.69-16.7-1.35-2.94-3-3.85-6.24-2.35-8.32,3.88-15.79,9-23.12,14.47-1.61,1.19-2.32,11.13-.95,12.43a3.32,3.32,0,0,0,1.78.71c8.2,1,16.38,2.3,24.61,2.86C215,239.7,216.68,237.68,216.46,227.79Zm-16,54.71a15.91,15.91,0,0,0,1.68-2.34c2-5.1,3.42-10.71,11.23-8,2.17.77,1.92-1.39,1.56-3a53,53,0,0,0-11.53-22.34c-.72-.86-1.71-1.94-2.69-2.08-6.47-.91-13-1.59-20.94-2.52C191.57,253.82,197.39,267.12,200.42,282.5Zm-43.69-40.2c-5,.69-10.09,1.81-15.15,1.93a10.45,10.45,0,0,0-8.81,4.54,56.56,56.56,0,0,0-9.54,19c-1.16,4.14,0,5.48,3.88,4.22s5.56.38,6.54,3.83a14.41,14.41,0,0,0,3.73,6.65C140.3,267.08,146.06,253.79,156.73,242.3Zm12-6.86c3.18.27,6.15.72,6.12-4.65,0-5.22-3.08-4.37-6.15-4.43-3.34-.06-6.39-.7-6.33,4.72C162.38,236.3,165.34,235.55,168.69,235.44Z"/><path class="cls-5" d="M169.74,137.84q34.88,0,69.75,0c6.24,0,6.85.62,6.86,6.84,0,27.58-.08,55.16.08,82.73,0,4.52-1.28,6.47-6,6.08-3.46-.3-7-.05-10.46-.09-2.09,0-3.63-.88-3.52-3.22.1-2.06,1.56-2.75,3.44-2.78h.49c3.09-.35,7.13,1.43,9.07-.83,2.18-2.53.76-6.68.77-10.12.07-22.26-.08-44.52.13-66.78,0-4.22-1.26-5.24-5.33-5.22q-65.5.2-131,0c-4,0-5.45.81-5.41,5.14.21,24.26.17,48.51,0,72.77,0,3.74.74,5.71,4.89,5.07a39.29,39.29,0,0,1,4.48-.05c2.23-.09,4.23.45,4.18,3,0,2.15-1.83,3-3.87,3l-1,0c-17.69-.31-14.48,2.59-14.61-14.12-.18-25.08.08-50.17-.15-75.25,0-5,1.83-6.31,6.41-6.29C122.58,137.91,146.16,137.84,169.74,137.84Z"/><path class="cls-6" d="M169.54,191.46H122.76a20.08,20.08,0,0,1-4-.18,3.29,3.29,0,0,1-2.9-3c-.15-1.83,1.19-2.73,2.7-3.06a23,23,0,0,1,4.91-.48q46,0,92.06,0c.83,0,1.66,0,2.49,0,2.49.16,5,.88,4.75,3.84-.22,2.68-2.72,2.89-5,2.88Q193.68,191.44,169.54,191.46Z"/><path class="cls-7" d="M169.31,169.57q23.9,0,47.81,0c2.21,0,5.14-.64,5.24,2.88s-2.75,3.11-5,3.11q-47.81,0-95.61,0c-2.51,0-5.63.22-5.58-3.24,0-3.25,3.08-2.77,5.37-2.77Z"/><path class="cls-8" d="M169.27,159.73q-11.93,0-23.86,0c-2.28,0-5.31.45-5.32-2.82,0-3.43,3.09-3.22,5.6-3.22,15.74,0,31.48,0,47.22,0,2.38,0,5.55-.65,5.48,3.16-.06,3.49-3.06,2.83-5.26,2.84C185.17,159.77,177.22,159.73,169.27,159.73Z"/></g></g></svg>