<svg xmlns="http://www.w3.org/2000/svg" viewBox="0 0 339.1 392.27"><defs><style>.cls-1{fill:#fff;}.cls-2{fill:#7b939f;}.cls-3{fill:#2e2a2b;}.cls-4{fill:#dae0e3;}.cls-5{fill:#dae1e4;}</style></defs><g id="Laag_2" data-name="Laag 2"><g id="Laag_1-2" data-name="Laag 1"><path class="cls-1" d="M105,20.68s8.07,14.21,5.37,26.81-4.69,30.59-23.82,41.72-47.34,6.4-59.28.08-16.49-40-9.33-52.82C24.2,25.17,29.78,13.18,62,4.67S105,20.68,105,20.68Z"/><path class="cls-2" d="M339.1,214c0,32.31-3.65,59.29-14.5,84.93-15,35.53-40.69,60.79-76,75.78a215.36,215.36,0,0,1-124.85,13.89C80,380.65,50,354.34,31,314.71c-13.1-27.34-20-56.5-24.86-86.22C2.87,208.35-.48,188.2.06,167.66.76,141,6.94,115.81,19.77,92.32c1.81-3.32,3.14-4.8,7.47-3a93.18,93.18,0,0,0,31.05,6.42c24.46,1.13,42.58-12,49.35-35.61C111.48,46.71,113,33.36,105,20.68c-1.85-2.94,1.34-2.83,2.56-3.34a219.74,219.74,0,0,1,43.3-12.89C173,.3,195.15-1.67,217.63,1.73c38.53,5.81,66.5,26.59,85.89,59.78,13,22.32,20.69,46.61,26,71.74A462,462,0,0,1,339.1,214Z"/><path class="cls-3" d="M61,42.31c4.69,4.27,5.56,17.61,1.47,22.39-3.42,4-10.9,4.2-14.86.39-.9-.87-2.39-1.81-.61-3.08,1.23-.87,1.57-3.38,4.26-1.86,5.11,2.9,6.93,1.74,7.19-4.25A53.85,53.85,0,0,0,58.07,49c-.14-1.62-1-2.94-2.74-3-2.22-.1-3.58-.44-3.55-3.31,0-2.58,1.08-2.84,3.17-3.12,2.72-.36,3.12-2.75,3-5-.17-3.19,1.31-6.85-1.86-9.29a3.17,3.17,0,0,0-4.14.58c-2.44,2.67-3.9.29-5-1.16-1.54-2,.7-2.9,1.89-3.74,6.28-4.47,14.18-1.28,15.6,6.22C65.75,34.19,64.78,38.44,61,42.31Z"/><path class="cls-4" d="M134.7,210.26l.71-.75Z"/></g><g id="Laag_2-2" data-name="Laag 2"><path class="cls-5" d="M134.36,210.83c-3.94,1.11-5.3-.37-5.16-4.43.26-7.8.07-15.61.15-23.42a15.48,15.48,0,0,0-2.76-9.38c-.76-1.08-1.49-2.58-3-2.24-1.8.41-1,2.17-1,3.37-.09,7.64-.1,15.28-.17,22.93,0,1.88.73,4.18-2.48,4.36s-3.34-2.25-3.38-4.34c-.13-7.47-.12-15-.07-22.43a11.1,11.1,0,0,0-3.77-8.84c-1.41-1.24-2.93-1.94-3.26,1.05-.64,5.74-1.9,11.42,0,17.22,1.75,5.48,1,11.2,1,16.83,0,2.1.31,3.51,2.9,3.51,6.32,0,10.8,3.54,13.67,8.62,4.41,7.81,10.89,13.15,18.22,17.91,10.13,6.57,18.81,14.63,24.33,26.33,5.69-13.3,16.29-21.42,27.59-28.64A42.72,42.72,0,0,0,211.65,214c3-5.24,7.32-8.58,13.49-8.92,2.33-.13,3.27-1.05,3.13-3.36-.44-7.34.78-14.43,2.27-21.64,1-4.56-.9-9.7-1.57-15.24-5.35,2.77-6.73,7-6.83,11.76-.16,7.14,0,14.28,0,21.43,0,1.89.49,4.1-2.79,4.06s-3.15-2-3.14-4.3c0-7.81,0-15.62-.11-23.43,0-.93.44-2.19-.58-2.71-1.4-.7-2.1.7-2.75,1.52-2.27,2.87-2.91,6.23-2.87,9.83.09,8,.11,16,.11,23.92,0,2.17.21,4.4-3.23,4.24-3.21-.15-2.67-2.23-2.68-4.18,0-8.47-.12-17,0-25.42.11-9.84,5.17-15.79,14.76-17.36a6.31,6.31,0,0,0,3.74-2.19,13.24,13.24,0,0,1,6.42-3.62c3.18-.84,5.17.36,5.72,3.67.19,1.14.26,2.3.35,3.46.29,3.82-.1,8,6.17,5,3-1.41,5.4.22,5.8,4,.9,8.39,2.63,16.77,2.7,25.17.08,8.9-2.23,17.84-1.92,26.72.41,11.76-6.62,18.45-14.25,25.24-3,2.65-5.85,5.41-8.74,8.14-8.2,7.73-13.85,16.51-11.89,28.5.18,1.13,0,2.33,0,3.48.18,2.4-.93,3.21-3.25,3.17s-2.47-1.39-2.69-3.23c-1.67-14,2.05-25.85,12.92-35.28,5.27-4.56,9.81-10,15.32-14.22,6.58-5,5.87-12.11,6.71-18.85.76-6.07,1.36-12.18,1.81-18.28.64-8.67-1.65-17.12-2.15-25.71-.05-.73-.29-1.75-1.3-1.88-1.18-.15-1.75.82-2.28,1.63-3.32,5.09-4,10.87-3.9,16.7.22,8.47-.2,16.71-2.67,25-2,6.64-5,12.12-10.2,16.6a104.94,104.94,0,0,0-7.75,7.75c-1.32,1.4-2.4,2.06-4.09.38s-1.6-3,.07-4.58c2.41-2.29,4.45-5,7.09-7,6.38-4.72,8.53-11.59,10.27-18.74,1-4-.14-4.87-4-3.75a8.84,8.84,0,0,0-5.52,4.71c-4.79,9.14-12.25,15.52-21,20.68-4.59,2.72-8.32,6.56-12.39,10-10.6,8.86-9,20.09-6.37,31.5,1.07,4.63.56,9.25.76,13.88.07,1.85-.75,2.69-2.65,2.71s-3.39-.44-3.16-2.71c.83-8.23-1.91-16.1-2.34-24.2,0-.92.31-2.42-.72-2.51-1.79-.15-1,1.55-1.18,2.52.1,8.68-3,17.09-2.2,25.82-.28.31-.55.62-.83.92l-4,0c-.26-.29-.52-.59-.77-.89-.5-5.49-.67-11.08,1.11-16.28,5.85-17.15-1.75-28.72-15.12-38.1-1.77-1.24-3.51-2.53-5.36-3.63-7.83-4.67-14.41-10.51-18.78-18.69-1.48-2.78-3.53-5.34-6.93-6-2.72-.53-4.51-.27-3.56,3.52,1.79,7.2,4.05,13.94,10.25,18.77,2.73,2.12,4.9,5,7.44,7.34,1.61,1.52,2.05,2.68.19,4.46s-2.67,1.41-4.5,0c-15.49-12.18-21.53-28.34-20.68-47.6.21-4.63.27-9.31-1.21-13.82-.88-2.69-2-5.27-5.38-6.73-2.12,11.76-3.35,23.29-2.15,35,.63,6.09,1.39,12.18,1.65,18.3a13.07,13.07,0,0,0,4,9.24c7.44,7.57,15.61,14.38,22.74,22.31,8.16,9.08,8.67,19.67,8.08,30.8-.12,2.17-1.59,2.14-3.15,2.19-1.83.06-2.8-.61-2.75-2.57.06-2.66-.26-5.35,0-8,.93-8-2.54-14.25-7.77-19.68-6.1-6.34-12.12-12.83-18.83-18.49-6-5.11-8-11.36-8.35-18.75-.35-6.61-1.29-13.18-1.81-19.78C88.69,196,91,184.54,92.44,173c.45-3.67,3.35-3.2,5.78-2.19,3.91,1.64,5.66.52,5.56-3.69a12.48,12.48,0,0,1,.42-1.94c1.13-7.87,3.85-9.16,10.39-4.6a21.23,21.23,0,0,0,8.75,4c6.68,1.2,11.7,9,11.87,17.71.08,4.13-.62,8.27-.63,12.4,0,5.13.31,10.26.49,15.39Z"/><path class="cls-4" d="M166.21,165.25c.08-6.93.49-12.87,2-18.65a23.63,23.63,0,0,1,11.06-14.74c3.27-2,6.6-3.8,9.37-6.52,1.92-1.89,3.82-1.64,5.33.74,5.91,9.3,3.73,24.25-4.61,31.38a14.72,14.72,0,0,1-7.5,3.66c-10.53,1.51-10.53,1.51-9.11,13.09,4.53-5.39,10.86-6.58,16.42-9.3,2.56-1.26,4.41-.62,4.8,2.13,1.61,11.39-5.39,24.42-18.76,21.44-2.28-.51-2.84.24-3,2.42a15.89,15.89,0,0,0,13.13,17.24c6.27,1.26,11.39,4.36,14.21,10.54,1,2.16.48,3.26-1.5,4.38-2.21,1.25-2.88,0-3.7-1.62a13.05,13.05,0,0,0-11-7.51c-4.83-.43-8.34-3.06-11.2-6.69-2.14-2.72-4.13-2.94-6.42-.2a30.94,30.94,0,0,1-12.08,8.5,18.25,18.25,0,0,0-8.49,7.47c-1.24,2-2.38,1.56-4,.57-1.85-1.1-2.16-2.11-.95-4a25.24,25.24,0,0,1,11.7-9.73c5.3-2.15,9-6.18,13-9.89,1.52-1.41,2.17-13.87,1-15.36-.76-.95-1.79-.63-2.75-.67-12.21-.49-18.91-6.53-20.68-18.78a78.42,78.42,0,0,1-.8-8.91c-.11-3.4,2.68-5.59,4.46-3.59C151.42,158.7,159.7,159.46,166.21,165.25Zm25.17-24.72c-.21-2-.32-4-.7-5.89-.2-1-.36-2.18-2.25-1.56-8.09,2.61-15.13,11.9-15.66,20.68-.11,1.81.22,2.41,2,2.39C184.59,156,191.83,150.4,191.38,140.53Zm-42.92,21.88c.51,9.21,6,16.83,12.27,15.84,5.06-.79,5.84-1.54,3.26-6.06C160.61,166.28,154.35,165.12,148.46,162.41ZM178.8,183c4.16-.07,9.11-5,9.22-9,0-1.85-.78-1.7-2.15-1.38-3.75.87-6.44,3.22-8.84,6-.83,1-2.24,1.84-1.64,3.32S177.68,182.84,178.8,183Z"/></g></g></svg>