<svg xmlns="http://www.w3.org/2000/svg" viewBox="0 0 339.24 391.87"><defs><style>.cls-1{fill:#fff;}.cls-2{fill:#7b939f;}.cls-3{fill:#2b2829;}.cls-4{fill:#dce3e5;}</style></defs><g id="Laag_2" data-name="Laag 2"><g id="Laag_1-2" data-name="Laag 1"><path class="cls-1" d="M112.47,41.38c1.49,15.53-5.8,27.13-8.77,32.14a53.19,53.19,0,0,1-9,11.19c-19.12,18.39-50,10.23-54.36,9.14a72.26,72.26,0,0,1-14.66-5.37h0a37.64,37.64,0,0,1-8.67-9.58C12.28,71.27,10.89,64,11.39,60c1.76-14,3.22-29.38,17.74-43.34,18.71-18,49-10.4,54.35-9.14a75.23,75.23,0,0,1,15.38,5.4h0C102.13,16.22,111,26.2,112.47,41.38Z"/><path class="cls-2" d="M337.59,204.59c-2.68,28.16-6.89,56-15.33,83-8.26,26.45-20,51.07-39.86,71S238,389.31,210,391.25c-51.59,3.6-99.31-8.45-141.83-38.2-38.51-26.94-60.69-64.28-66.84-111-2.63-19.93-1-39.78,1.88-59.57,3.82-26.29,8.41-52.42,16.86-77.7,1.72-5.16,3.67-10.24,5.66-15.77A118,118,0,0,0,56.14,95.7c25.13,2.22,44.38-11.07,51.56-35.31a67.13,67.13,0,0,0,3.06-20.11c-.17-11.26-3.36-17.94-14-28.56a98.16,98.16,0,0,1,25.94-8.1C173.1-4.74,221.52.79,266.32,26.36c37.43,21.37,58.62,55,67.85,96.46C340.18,149.84,340.21,177.12,337.59,204.59Z"/><path class="cls-3" d="M61,50.82c4.89-.26,5.45,2.19,4.5,5.84-7.59.3-2.47,6.55-4.8,10-1.24.7-3,0-5.14.17V57.22H43.74c1.67-13.57,8.2-24.83,11.31-37.1H61Zm-5.6-.23V36.82l-.58-.15-5,14A8.61,8.61,0,0,0,55.38,50.59Z"/></g><g id="Laag_2-2" data-name="Laag 2"><path class="cls-4" d="M123,153.56c-1.16,4.78-2.27,9.6-3.52,14.38-.62,2.36-1.69,4.67-4.74,3.84-2.81-.77-2.54-3.3-2.1-5.4,1.14-5.34,2.62-10.62,3.74-16,.73-3.49,2.81-4.4,6.09-4.37,14.13.1,28.25,0,42.38,0q45.87,0,91.73,0c6.69,0,7.78,1.27,6.26,7.55-7.78,32.06-15.65,64.09-23.3,96.18-.9,3.8-2.53,5.22-6.39,5.21Q165.57,254.9,98,255c-5.16,0-6.48-1.43-5.29-6.26,1.51-6.11,3.38-12.14,5.17-18.18.66-2.21,1.88-4.16,4.62-3.38,3,.86,2.85,3.15,2.12,5.63-1.39,4.74-2.69,9.52-4,14.25,1.83,1.49,3.72.87,5.44.87,40.38,0,80.76,0,121.15.13,4,0,5.76-1,6.72-5.06,6.87-29.2,14-58.34,21.06-87.5a10.16,10.16,0,0,0,0-1.9Z"/><path class="cls-4" d="M171.69,215.15c-6.09.1-10.21-2-13.41-6.43-10.26-14.28-20.69-28.44-31-42.66a16.14,16.14,0,0,1-2.32-3.81c-.59-1.63.44-3,1.82-3.7,2.42-1.24,4,.13,5.43,2Q145,178.31,157.94,196c2,2.68,3.86,5.4,5.88,8,3.84,5,8.18,5.54,13.34,1.83q31.91-23,63.84-45.88c.81-.58,1.63-1.14,2.45-1.71,2-1.39,4.08-2.9,6-.22s.08,4.62-2.05,6.16q-9.25,6.73-18.56,13.39l-46.08,33.1C179.24,213.24,175.68,215.73,171.69,215.15Z"/><path class="cls-4" d="M83.15,222q-12.69,0-25.38,0c-2.64,0-5.25-.09-5.18-3.69.07-3.31,2.55-3.37,5-3.36q25.64,0,51.26,0c2.7,0,5.47.39,5.33,3.67s-3,3.42-5.62,3.4C100.08,222,91.62,222,83.15,222Z"/><path class="cls-4" d="M108.28,245.85c-2-.3-3.11-1.23-3.54-2.78-.59-2.1.66-3.43,2.19-4.61q11.23-8.66,22.45-17.36c5.37-4.16,10.77-8.31,16.1-12.54,2.12-1.69,4.16-2.28,6,.09s.17,4.07-1.57,5.43q-19.37,15.24-38.84,30.35A14.61,14.61,0,0,1,108.28,245.85Z"/><path class="cls-4" d="M93.52,185.15c-7.47,0-14.94,0-22.41,0-2.54,0-5.07-.41-5.16-3.35-.1-3.3,2.58-3.73,5.29-3.73q22.41,0,44.83,0c2.72,0,5.31.45,5.34,3.74,0,3.67-3,3.3-5.48,3.31C108.46,185.17,101,185.15,93.52,185.15Z"/><path class="cls-4" d="M232,242.14c0,1.65-.6,2.93-1.88,3.51-1.85.84-3.48.18-5-1.18-5.4-4.91-10.87-9.73-16.28-14.64-5-4.57-10-9.2-15-13.81-1.8-1.65-3.55-3.49-1.36-5.89,2.06-2.25,4.13-1.19,6,.54q15.45,14.07,30.93,28.11A7.11,7.11,0,0,1,232,242.14Z"/><path class="cls-4" d="M94.51,203.84c-5.65,0-11.3,0-17,0-2.7,0-5.38-.36-5.59-3.55s2.53-4,5.16-4c12-.07,23.94-.05,35.9,0,2.57,0,4.89.89,4.86,3.81s-2.36,3.73-4.93,3.74C106.81,203.85,100.66,203.83,94.51,203.84Z"/></g></g></svg>