<svg width="63" height="38" xmlns="http://www.w3.org/2000/svg"><defs><linearGradient x1="100%" y1="50%" x2=".154%" y2="50%" id="a"><stop stop-color="#FCD19A" offset="0%"/><stop stop-color="#F39200" offset="23.7%"/><stop stop-color="#FDD5A5" offset="86%"/><stop stop-color="#FBC887" offset="88.4%"/><stop stop-color="#F9B966" offset="91.6%"/><stop stop-color="#F8AF4E" offset="94.7%"/><stop stop-color="#F7A840" offset="97.6%"/><stop stop-color="#F7A63B" offset="100%"/></linearGradient><linearGradient x1=".986%" y1="50%" x2="100.273%" y2="50%" id="b"><stop stop-color="#AE6914" offset="0%"/><stop stop-color="#EB8D02" offset="86%"/><stop stop-color="#ED9513" offset="87.1%"/><stop stop-color="#F2A73E" offset="89.9%"/><stop stop-color="#F6B65F" offset="92.7%"/><stop stop-color="#F9C077" offset="95.4%"/><stop stop-color="#FAC785" offset="97.9%"/><stop stop-color="#FBC98A" offset="100%"/></linearGradient><linearGradient x1="0%" y1="50%" x2="99.846%" y2="50%" id="c"><stop stop-color="#FCD19A" offset="0%"/><stop stop-color="#F39200" offset="23.7%"/><stop stop-color="#FDD5A5" offset="86%"/><stop stop-color="#FBC887" offset="88.4%"/><stop stop-color="#F9B966" offset="91.6%"/><stop stop-color="#F8AF4E" offset="94.7%"/><stop stop-color="#F7A840" offset="97.6%"/><stop stop-color="#F7A63B" offset="100%"/></linearGradient></defs><g fill="none" fill-rule="evenodd"><path d="M47.022 18.345v-4.207h-1.28v5.724h3.776v-.965h-2.496v-.552zm4.353.552v-1.518h2.432v-.965h-2.432v-1.31h2.624v-.966h-3.905v5.724h3.969v-.965h-2.688zM20.01 15.103h1.729v4.76h1.216v-4.76h1.728v-.965H20.01v.965zm-1.6-.965h-1.536l-1.536 4.207-.576 1.586h1.216l.448-1.241h2.304l.448 1.241h1.28l-.576-1.586-1.472-4.207zm-.832 1.103l.832 2.483h-1.664l.832-2.483zm-4.48 3.104v.276l-.192-.276-2.049-4.207H9.001v5.724h1.152v-4.759l1.6 3.242.705 1.517h1.792v-5.724h-1.152v4.207zm30.02-4.207h-1.473l-1.536 4.207-.576 1.586h1.216l.384-1.241h2.305l.448 1.241h1.28l-.576-1.586-1.472-4.207zm-.769 1.103l.833 2.483h-1.665l.832-2.483zm-17.09 3.104v1.517h1.28v-5.724h-1.28v4.207zm12.546 0v.276l-.192-.276-2.048-4.207h-1.857v5.724h1.152v-4.759h.064l1.537 3.242.768 1.517h1.728v-5.724h-1.152v4.207zM30.124 14c-1.92 0-2.817 1.31-2.817 3.034 0 .483.064.897.192 1.31C27.884 19.38 28.716 20 30.06 20c1.409 0 2.241-.69 2.561-1.655h-1.344c-.192.483-.576.758-1.216.758s-1.024-.344-1.216-.758c-.192-.414-.192-.897-.192-1.31 0-.966.256-2.138 1.472-2.138s1.472 1.103 1.472 2.137a4.3 4.3 0 01-.192 1.31h1.344a4.3 4.3 0 00.192-1.31C32.876 15.31 32.044 14 30.124 14zM1 14.069h5.377v5.793H1V14.07zm55.623 0H62v5.793h-5.377V14.07z" fill="#E40421" fill-rule="nonzero"/><path d="M9.622 36.295v-4.159H8v5.728h4.93v-.955H9.623v-.614zm34.062 0c-.13-.681-.195-1.159-1.362-1.295.973-.136 1.622-.614 1.622-1.364 0-1.159-1.363-1.5-2.66-1.5h-3.245v5.728h1.622v-2.319h1.752c.52 0 .65.41.714.75.065.546.13 1.023.26 1.5h1.816c-.324-.34-.39-.954-.454-1.363-.065 0-.065-.068-.065-.137zm-2.66-1.704h-1.363v-1.5h1.363c.714 0 1.168.204 1.168.75 0 .477-.454.75-1.168.75zm-8.63 1.704v-.886h3.245v-.954h-3.244V33.09h3.503v-.955h-5.19v5.728h5.32v-.955h-3.633v-.614zm13.431 0v1.569h1.687v-5.728h-1.687v4.16zm6.618-4.159v3.75c0 .137 0 .205-.065.341-.065.41-.26.75-.908.75-.65 0-.844-.409-.909-.75H48.94c.195 1.023.779 1.637 2.53 1.637 1.298 0 2.336-.478 2.531-1.637v-4.159h-1.557v.068zM18.056 32c-2.53 0-3.698 1.295-3.698 3 0 .477.065.886.26 1.295.454 1.023 1.557 1.705 3.438 1.705 1.817 0 2.92-.682 3.44-1.636h-1.753c-.26.477-.778.75-1.622.75-.908 0-1.362-.341-1.622-.75-.194-.41-.26-.887-.26-1.296 0-.954.325-2.113 1.947-2.113s1.947 1.09 1.947 2.113c0 .477-.065.887-.26 1.296h1.752c.194-.41.26-.819.26-1.296C21.69 33.295 20.586 32 18.055 32zm4.996 1.09h2.271v4.774h1.622V33.09h2.336v-.955h-6.229v.955z" fill="#0069B4" fill-rule="nonzero"/><path d="M49.742 36.393c0 .06 0 .178.065.238h1.625v-.238h-1.69zM57.541 33H63v5h-5.46v-5zM1 33h5.46v5H1v-5z" fill="#0069B4" fill-rule="nonzero"/><path d="M2.993 30.815v-3.082h1.285c1.736 0 2.893-.678 2.893-2.774s-1.157-2.774-2.893-2.774H1v8.568h1.993v.062zm0-4.747v-2.157H4.02c.771.062 1.093.493 1.093 1.11 0 .616-.322 1.047-1.093 1.11H2.993v-.063zm10.863.494c0 1.294-.257 2.774-1.607 2.774s-1.607-1.48-1.607-2.774c0-1.357.257-2.836 1.607-2.836 1.285 0 1.607 1.48 1.607 2.836zM12.184 31c2.379 0 3.729-1.664 3.729-4.438 0-2.836-1.35-4.439-3.729-4.439-2.378 0-3.728 1.665-3.728 4.439C8.521 29.336 9.806 31 12.184 31zm11.056-6.288C23.37 22.678 21.826 22 20.348 22c-1.479 0-2.957.555-3.086 2.589 0 .925.386 1.726 1.093 2.096 1.543.801 3.021.555 3.021 1.726 0 .555-.578.863-1.028.863-.707 0-1.222-.432-1.222-1.233h-1.992c0 2.343 1.478 2.897 3.15 2.897 1.67 0 3.15-.863 3.15-2.65 0-2.343-1.736-2.466-2.958-2.836-.45-.123-1.092-.308-1.092-.986 0-.432.385-.802.835-.802.322 0 .579.124.772.247.192.185.257.431.257.74h1.992v.061zm2.893 6.103h1.992v-6.904h2.25v-1.664h-6.428v1.664h2.186v6.904zm11.57-5.918c0-2.157-1.671-2.897-3.407-2.897-2.25 0-3.407 1.603-3.407 4.438 0 2.898 1.222 4.5 3.407 4.5 1.736 0 3.471-.74 3.407-2.897h-2.057c-.064.801-.514 1.233-1.35 1.233-1.093 0-1.35-1.48-1.35-2.712 0-1.295.193-2.898 1.35-2.898.836 0 1.286.432 1.35 1.233h2.057zm9.899-2.65v8.568h3.02c2.443 0 4.05-1.11 4.05-4.253 0-3.144-1.607-4.254-4.05-4.254h-3.02v-.061zm1.992 1.664h.9c1.093 0 2.121.863 2.121 2.65 0 1.788-1.028 2.651-2.12 2.651h-.9v-5.301zM62 30.815v-1.664h-3.471v-1.788h3.214v-1.664h-3.214V23.91H62v-1.664h-5.464v8.568H62zM44.002 26.5c0 1.295-.257 2.774-1.607 2.774s-1.607-1.48-1.607-2.774c0-1.356.257-2.836 1.607-2.836s1.607 1.541 1.607 2.836zm-1.607 4.438c2.378 0 3.728-1.664 3.728-4.438 0-2.836-1.35-4.438-3.728-4.438s-3.728 1.664-3.728 4.438c0 2.836 1.35 4.438 3.728 4.438z" fill="#23A638" fill-rule="nonzero"/><path d="M.643 3.2S7.136.933 14.207 1.467C21.28 2 29.7 4 32.85 3.867c3.15-.134 3.536-.2 3.664-.667V9s.065.667-3.214.667S18 7.4 14.529 7.267c-3.472-.134-9.065-.2-13.95 1.6l4.885-3.934L.643 3.2z" fill="url(#a)"/><path d="M36.514 9.067V6.533L32.657 3.4 27.58 4.6l-.708 1.867s-.385.8 3.408 1.133c3.985.4 5.978.8 6.235 1.467z" fill="url(#b)"/><path d="M62.871 6.667S56.38 8.933 49.307 8.4C42.236 7.867 33.814 5.867 30.664 6c-3.15.133-3.535.2-3.664.667v-5.8S26.936.2 30.214.2c3.279 0 15.3 2.267 18.772 2.4 3.471.133 9.064.2 13.95-1.6L58.05 4.933l4.821 1.734z" fill="url(#c)"/></g></svg>